<svg id="Layer_1" data-name="Layer 1" xmlns="http://www.w3.org/2000/svg" viewBox="0 0 49.5 77.42"><defs><style>.cls-1{fill:#d24227;}</style></defs><title>favicon</title><path class="cls-1" d="M538.57,505.44c0,.3,0,.62,0,.91a23.13,23.13,0,0,1-45.72,4,14.85,14.85,0,1,0-.41-3.46c0,.39,0,.8,0,1.18a25.46,25.46,0,0,1-.16-2.64,22.9,22.9,0,0,1,3.6-12.35v0a23.33,23.33,0,0,1,5.62-6.1,22,22,0,0,1,2.25-1.5,23.13,23.13,0,0,1,34.8,20Z" transform="translate(-489.07 -451.17)"/><path class="cls-1" d="M529.38,453c0,14-8.51,25.63-19.8,28.24a15.64,15.64,0,0,1-4.85.78,10.88,10.88,0,0,1-1.52-.1.32.32,0,0,1,0-.18c-.07-.82-.11-1.68-.11-2.52A28.07,28.07,0,0,1,516,455.56a27.35,27.35,0,0,1,13.31-4.39C529.35,451.78,529.38,452.4,529.38,453Z" transform="translate(-489.07 -451.17)"/><path class="cls-1" d="M503,480.75c0,.34,0,.66,0,1v.16a13.39,13.39,0,0,1-3-.64,15.63,15.63,0,0,1-10.81-14.81A14.31,14.31,0,0,1,503,480.75Z" transform="translate(-489.07 -451.17)"/></svg>